<svg xmlns="http://www.w3.org/2000/svg" width="14pt" height="14pt" viewBox="0 0 14 14"><path d="M11.95 9.05a6.938 6.938 0 00-2.66-1.667 4.042 4.042 0 001.757-3.336A4.053 4.053 0 007 0a4.053 4.053 0 00-4.047 4.047c0 1.383.695 2.605 1.758 3.336A6.938 6.938 0 002.05 9.05 6.94 6.94 0 000 14h1.094A5.912 5.912 0 017 8.094 5.912 5.912 0 0112.906 14H14a6.94 6.94 0 00-2.05-4.95zM7 7a2.956 2.956 0 01-2.953-2.953A2.956 2.956 0 017 1.094a2.956 2.956 0 012.953 2.953A2.956 2.956 0 017 7zm0 0" id="surface1"/></svg>