<svg xmlns="http://www.w3.org/2000/svg" width="10pt" height="11pt" viewBox="0 0 10 11"><path d="M7 6.531c-.64 0-.95.344-2 .344s-1.355-.344-2-.344c-1.656 0-3 1.293-3 2.887v.55C0 10.54.48 11 1.07 11h7.86c.59 0 1.07-.46 1.07-1.031v-.551c0-1.594-1.344-2.887-3-2.887zM8.93 9.97H1.07v-.551c0-1.023.867-1.855 1.93-1.855.324 0 .855.343 2 .343 1.152 0 1.672-.343 2-.343 1.063 0 1.93.832 1.93 1.855zM5 6.188c1.773 0 3.215-1.387 3.215-3.094C8.215 1.387 6.773 0 5 0S1.785 1.387 1.785 3.094C1.785 4.8 3.227 6.188 5 6.188zM5 1.03c1.18 0 2.145.926 2.145 2.063S6.18 5.156 5 5.156c-1.18 0-2.145-.926-2.145-2.062C2.855 1.957 3.82 1.03 5 1.03zm0 0" fill="#fff" id="surface1"/></svg>